<svg width="75" height="75" viewBox="0 0 75 75" fill="none" xmlns="http://www.w3.org/2000/svg">
<g filter="url(#filter0_i_360_133)">
<rect width="75" height="75" rx="10" fill="#1F731D"/>
<path d="M23.4957 22.5043C24.472 21.528 26.0549 21.528 27.0312 22.5043L37.2843 32.7574L47.5373 22.5043C48.5136 21.528 50.0965 21.528 51.0729 22.5043L51.78 23.2114C52.7563 24.1877 52.7563 25.7706 51.78 26.747L41.5269 37L51.78 47.253C52.7563 48.2294 52.7563 49.8123 51.78 50.7886L51.0729 51.4957C50.0965 52.472 48.5136 52.472 47.5373 51.4957L37.2843 41.2426L27.0312 51.4957C26.0549 52.472 24.472 52.472 23.4957 51.4957L22.7886 50.7886C21.8123 49.8123 21.8123 48.2294 22.7886 47.253L33.0416 37L22.7886 26.747C21.8123 25.7706 21.8123 24.1877 22.7886 23.2114L23.4957 22.5043Z" fill="#FEFEFE"/>
</g>
<defs>
<filter id="filter0_i_360_133" x="0" y="-1.5" width="75" height="76.5" filterUnits="userSpaceOnUse" color-interpolation-filters="sRGB">
<feFlood flood-opacity="0" result="BackgroundImageFix"/>
<feBlend mode="normal" in="SourceGraphic" in2="BackgroundImageFix" result="shape"/>
<feColorMatrix in="SourceAlpha" type="matrix" values="0 0 0 0 0 0 0 0 0 0 0 0 0 0 0 0 0 0 127 0" result="hardAlpha"/>
<feMorphology radius="1.5" operator="erode" in="SourceAlpha" result="effect1_innerShadow_360_133"/>
<feOffset dy="-4"/>
<feComposite in2="hardAlpha" operator="arithmetic" k2="-1" k3="1"/>
<feColorMatrix type="matrix" values="0 0 0 0 0 0 0 0 0 0.203922 0 0 0 0 0.0627451 0 0 0 0.5 0"/>
<feBlend mode="normal" in2="shape" result="effect1_innerShadow_360_133"/>
</filter>
</defs>
</svg>
