<svg width="100" height="100" viewBox="0 0 100 100" fill="none" xmlns="http://www.w3.org/2000/svg">
<g filter="url(#filter0_i_938_644)">
<rect width="100" height="100" rx="16" fill="#04A51D"/>
<path d="M50.5 30C51.8807 30 53 31.1193 53 32.5V47H67.5C68.8807 47 70 48.1193 70 49.5V50.5C70 51.8807 68.8807 53 67.5 53H53V67.5C53 68.8807 51.8807 70 50.5 70H49.5C48.1193 70 47 68.8807 47 67.5V53H32.5C31.1193 53 30 51.8807 30 50.5V49.5C30 48.1193 31.1193 47 32.5 47H47V32.5C47 31.1193 48.1193 30 49.5 30H50.5Z" fill="white"/>
</g>
<defs>
<filter id="filter0_i_938_644" x="0" y="-1.5" width="100" height="101.5" filterUnits="userSpaceOnUse" color-interpolation-filters="sRGB">
<feFlood flood-opacity="0" result="BackgroundImageFix"/>
<feBlend mode="normal" in="SourceGraphic" in2="BackgroundImageFix" result="shape"/>
<feColorMatrix in="SourceAlpha" type="matrix" values="0 0 0 0 0 0 0 0 0 0 0 0 0 0 0 0 0 0 127 0" result="hardAlpha"/>
<feMorphology radius="1.5" operator="erode" in="SourceAlpha" result="effect1_innerShadow_938_644"/>
<feOffset dy="-4"/>
<feComposite in2="hardAlpha" operator="arithmetic" k2="-1" k3="1"/>
<feColorMatrix type="matrix" values="0 0 0 0 0 0 0 0 0 0.203922 0 0 0 0 0.0627451 0 0 0 0.5 0"/>
<feBlend mode="normal" in2="shape" result="effect1_innerShadow_938_644"/>
</filter>
</defs>
</svg>
