<svg width="53" height="48" viewBox="0 0 53 48" fill="none" xmlns="http://www.w3.org/2000/svg">
<path d="M29.15 37.978C30.0281 37.978 30.74 38.6865 30.74 39.5604C30.74 40.4344 30.0281 41.1429 29.15 41.1429H23.85C22.9719 41.1429 22.26 40.4344 22.26 39.5604C22.26 38.6865 22.9719 37.978 23.85 37.978H29.15Z" fill="#161614"/>
<path d="M17.49 30.5934C18.3681 30.5934 19.08 31.3019 19.08 32.1758V36.3956C19.08 37.2696 18.3681 37.978 17.49 37.978C16.6119 37.978 15.9 37.2696 15.9 36.3956V32.1758C15.9 31.3019 16.6119 30.5934 17.49 30.5934Z" fill="#161614"/>
<path d="M35.51 30.5934C36.3881 30.5934 37.1 31.3019 37.1 32.1758V36.3956C37.1 37.2696 36.3881 37.978 35.51 37.978C34.6319 37.978 33.92 37.2696 33.92 36.3956V32.1758C33.92 31.3019 34.6319 30.5934 35.51 30.5934Z" fill="#161614"/>
<path fill-rule="evenodd" clip-rule="evenodd" d="M26.5 0C28.2563 0 29.68 1.41694 29.68 3.16484C29.68 4.54232 28.7944 5.71041 27.56 6.14526V11.6044H31.8C34.7271 11.6044 37.1 13.966 37.1 16.8791V18.4615H40.28C42.329 18.4615 43.99 20.1146 43.99 22.1538V25.3187H47.7C50.6271 25.3187 53 27.6803 53 30.5934V41.1429C53 44.056 50.6271 46.4176 47.7 46.4176H43.3244C42.6539 47.374 41.5406 48 40.28 48H12.72C11.4596 48 10.347 47.3738 9.67664 46.4176H5.3C2.37289 46.4176 5.12184e-08 44.056 0 41.1429V30.5934C0 27.6803 2.37289 25.3187 5.3 25.3187H9.01V22.1538C9.01 20.1146 10.671 18.4615 12.72 18.4615H15.9V16.8791C15.9 13.966 18.2729 11.6044 21.2 11.6044H25.44V6.14526C24.2056 5.71041 23.32 4.54232 23.32 3.16484C23.32 1.41694 24.7437 0 26.5 0ZM12.72 21.6264C12.4273 21.6264 12.19 21.8625 12.19 22.1538V44.3077L12.2004 44.4138C12.2497 44.6543 12.4638 44.8352 12.72 44.8352H40.28C40.5727 44.8352 40.81 44.599 40.81 44.3077V22.1538C40.81 21.8625 40.5727 21.6264 40.28 21.6264H12.72ZM5.3 28.4835C4.12916 28.4835 3.18 29.4281 3.18 30.5934V41.1429C3.18 42.2354 4.01446 43.1335 5.08365 43.2414L5.3 43.2528H8.48V28.4835H5.3ZM44.52 43.2528H47.7L47.9163 43.2414C48.9855 43.1335 49.82 42.2354 49.82 41.1429V30.5934C49.82 29.4281 48.8708 28.4835 47.7 28.4835H44.52V43.2528ZM21.2 14.7692C20.0292 14.7692 19.08 15.7139 19.08 16.8791V17.9341H33.92V16.8791C33.92 15.7139 32.9708 14.7692 31.8 14.7692H21.2ZM26.5 2.10989C25.9146 2.10989 25.44 2.58221 25.44 3.16484C25.44 3.74747 25.9146 4.21978 26.5 4.21978C27.0854 4.21978 27.56 3.74747 27.56 3.16484C27.56 2.58221 27.0854 2.10989 26.5 2.10989Z" fill="#161614"/>
</svg>
