<svg width="53" height="41" viewBox="0 0 53 41" fill="none" xmlns="http://www.w3.org/2000/svg">
<path d="M11.2607 31.9283C10.4797 32.7093 10.4799 33.9756 11.2607 34.7567L12.8987 36.3947C13.6797 37.1755 14.9461 37.1756 15.7271 36.3947L29.8727 22.2491C32.2234 24.4812 35.9369 24.4464 38.2426 22.1407L43.1924 17.1909C45.0953 15.288 45.1433 12.2333 43.3374 10.2718L37.9278 15.6814C37.7968 15.8124 37.6502 15.9185 37.4948 16.0011C35.8583 17.0985 33.6224 16.9249 32.1763 15.4791L34.2976 13.3578C34.7103 13.7701 35.3538 13.8245 35.8237 13.5097L35.9149 13.4517L40.4434 8.92315C40.5892 8.58785 40.7969 8.27273 41.0711 7.99852C42.2426 6.82696 44.1421 6.82695 45.3137 7.99852L45.4622 8.14699C45.5511 8.23589 45.6319 8.33001 45.7073 8.42665C48.4288 11.5707 48.3 16.3259 45.3137 19.3122L40.364 24.262C37.6344 26.9916 33.5924 27.5969 30.276 26.0884L17.8484 38.516C15.8956 40.4688 12.7303 40.4679 10.778 38.5167L9.13871 36.8773C7.1875 34.9251 7.18661 31.7598 9.1394 29.807L21.5669 17.3794C20.0585 14.063 20.6638 10.021 23.3934 7.29142L28.3431 2.34167C31.3264 -0.64155 36.0749 -0.773171 39.2191 1.93978C39.319 2.01715 39.416 2.10077 39.5077 2.19251L39.6569 2.34167L39.7632 2.45354C40.8273 3.63119 40.7918 5.44933 39.6569 6.58431C39.3819 6.85929 39.0658 7.06749 38.7295 7.21339L34.203 11.7398C34.1838 11.7711 34.1647 11.8025 34.1443 11.8331C33.8311 12.3023 33.8853 12.9452 34.2976 13.3578L32.1763 15.4791C30.7326 14.0352 30.5568 11.8033 31.6487 10.1675C31.7319 10.0091 31.8401 9.86008 31.9733 9.72693L37.3829 4.31729C35.4213 2.51202 32.3671 2.56034 30.4645 4.46299L25.5147 9.41274C23.209 11.7184 23.1743 15.4319 25.4063 17.7827L11.2607 31.9283ZM37.3864 4.31383L37.3829 4.31729C37.4344 4.36469 37.4856 4.41303 37.5355 4.46299L37.3864 4.31383ZM43.1924 10.1198C43.2421 10.1696 43.2902 10.2205 43.3374 10.2718L43.3409 10.2683L43.1924 10.1198Z" fill="#161614"/>
</svg>
