<svg width="35" height="39" viewBox="0 0 35 39" fill="none" xmlns="http://www.w3.org/2000/svg">
<path d="M21.8744 19.4974V36.5684C21.9619 37.2183 21.7432 37.9115 21.2401 38.3665C21.0378 38.5673 20.7974 38.7266 20.5328 38.8353C20.2682 38.944 19.9846 39 19.6981 39C19.4117 39 19.128 38.944 18.8634 38.8353C18.5989 38.7266 18.3585 38.5673 18.1562 38.3665L13.7599 34.0121C13.5215 33.781 13.3402 33.4985 13.2302 33.1866C13.1201 32.8747 13.0844 32.5418 13.1256 32.214V19.4974H13.06L0.461734 3.50952C0.106551 3.0579 -0.0537144 2.48539 0.0159568 1.91709C0.0856281 1.34879 0.379572 0.830904 0.833558 0.476602C1.24913 0.17331 1.70844 0 2.18962 0H32.8104C33.2916 0 33.7509 0.17331 34.1664 0.476602C34.6204 0.830904 34.9144 1.34879 34.984 1.91709C35.0537 2.48539 34.8934 3.0579 34.5383 3.50952L21.94 19.4974H21.8744Z" fill="black"/>
</svg>
