<svg width="53" height="48" viewBox="0 0 53 48" fill="none" xmlns="http://www.w3.org/2000/svg">
<path d="M28.0654 2.5C29.9984 2.5 31.5654 4.067 31.5654 6V6.88379C31.5654 7.11914 31.7549 7.38782 32.0967 7.44043C32.9521 7.57212 33.7412 7.73348 34.46 7.92773C34.8861 8.04017 35.2856 8.15441 35.6562 8.26953C37.4423 8.82442 38.2327 10.6679 37.8174 12.2803L37.418 13.8291C36.8748 15.937 34.6595 16.9179 32.7832 16.3887C32.4029 16.2814 32.002 16.1799 31.5811 16.084L31.5732 16.082C30.4018 15.8089 29.1493 15.6699 27.8115 15.6699C26.4622 15.6699 25.8409 15.9096 25.6113 16.085C25.3458 16.2878 25.2539 16.4827 25.2539 16.791C25.2539 17.0308 25.291 17.1974 25.3359 17.3145C25.4142 17.4152 25.5497 17.5481 25.7842 17.6992C26.1203 17.9159 26.5524 18.1479 27.0918 18.3926C27.3836 18.5036 27.7028 18.6218 28.0498 18.7471L29.248 19.1699L29.2598 19.1738L29.2725 19.1787C30.6406 19.6775 31.911 20.2267 33.0811 20.8281H33.082C34.3319 21.4546 35.4303 22.1953 36.3604 23.0586H36.3594C37.3337 23.9059 38.0938 24.916 38.6279 26.0811H38.6289C39.226 27.3158 39.5 28.7076 39.5 30.2148C39.5 31.2706 39.3416 32.3192 39.0312 33.3564L39.0273 33.3701C38.6937 34.448 38.141 35.4356 37.3916 36.3301V36.3311C36.6201 37.2518 35.6371 38.0104 34.4814 38.626C33.7741 39.0128 32.9878 39.3234 32.1328 39.5654C31.7309 39.6793 31.5654 39.98 31.5654 40.1855V42C31.5654 43.933 29.9984 45.5 28.0654 45.5H26.3848C24.452 45.4997 22.8848 43.9328 22.8848 42V40.4639C22.8848 40.2254 22.692 39.9566 22.3496 39.9092C20.9028 39.7098 19.6219 39.426 18.5264 39.0439L18.4893 39.0303C17.9719 38.8343 17.5003 38.65 17.0762 38.4775C15.3246 37.7652 14.6022 35.8164 15.2217 34.1553L15.7637 32.7031C16.4962 30.7392 18.6854 29.9554 20.4775 30.5996C20.982 30.7809 21.5233 30.9559 22.1016 31.125C23.4298 31.5046 24.8357 31.6973 26.3242 31.6973C27.1832 31.6972 27.851 31.6403 28.3496 31.5439C28.8639 31.4445 29.1002 31.322 29.1816 31.2627C29.4629 31.0513 29.6025 30.8025 29.6025 30.3506C29.6025 30.0198 29.5278 29.8499 29.4629 29.7559L29.4482 29.7354L29.4336 29.7139C29.3003 29.506 29.0777 29.272 28.708 29.0322C28.3098 28.774 27.7643 28.5013 27.0469 28.2246L27.0234 28.2158L27 28.2061C26.2532 27.8893 25.3813 27.5532 24.3809 27.1992L24.374 27.1973L24.3672 27.1943C23.3457 26.8219 22.3396 26.4181 21.3486 25.9834L21.3223 25.9727L21.2959 25.96C20.2642 25.4595 19.3106 24.8554 18.4375 24.1484L18.4258 24.1396L18.415 24.1309C17.5111 23.3696 16.7759 22.4484 16.209 21.3828L16.1943 21.3564L16.1816 21.3301C15.6113 20.1484 15.3564 18.7996 15.3564 17.333C15.3565 16.201 15.5108 15.1064 15.8252 14.0557L15.8301 14.041L15.834 14.0264C16.1891 12.9227 16.726 11.9173 17.4424 11.0195C18.0938 10.2032 18.9015 9.52091 19.8428 8.96387L20.2539 8.73242C20.8881 8.37786 21.5752 8.08503 22.3105 7.85059C22.7246 7.71858 22.8848 7.41263 22.8848 7.21289V6C22.8848 4.06716 24.452 2.50026 26.3848 2.5H28.0654Z" stroke="#161614" stroke-width="3"/>
</svg>
