<svg width="51" height="54" viewBox="0 0 51 54" fill="none" xmlns="http://www.w3.org/2000/svg">
<g filter="url(#filter0_i_959_159)">
<rect width="51" height="54" rx="8" fill="#05A51D"/>
<rect x="1" y="1" width="49" height="52" rx="7" stroke="#161614" stroke-width="2"/>
<path d="M14.5625 37.9375V37.9594M14.5625 16.0625V16.0844M36.4375 16.0625V16.0844M36.4375 31.375H29.875V37.9375M43 31.375V31.3969M29.875 44.5H36.4375M36.4375 37.9375H43V44.5M8 11.6875C8 11.1073 8.23047 10.5509 8.6407 10.1407C9.05094 9.73047 9.60734 9.5 10.1875 9.5H18.9375C19.5177 9.5 20.0741 9.73047 20.4843 10.1407C20.8945 10.5509 21.125 11.1073 21.125 11.6875V20.4375C21.125 21.0177 20.8945 21.5741 20.4843 21.9843C20.0741 22.3945 19.5177 22.625 18.9375 22.625H10.1875C9.60734 22.625 9.05094 22.3945 8.6407 21.9843C8.23047 21.5741 8 21.0177 8 20.4375V11.6875ZM29.875 11.6875C29.875 11.1073 30.1055 10.5509 30.5157 10.1407C30.9259 9.73047 31.4823 9.5 32.0625 9.5H40.8125C41.3927 9.5 41.9491 9.73047 42.3593 10.1407C42.7695 10.5509 43 11.1073 43 11.6875V20.4375C43 21.0177 42.7695 21.5741 42.3593 21.9843C41.9491 22.3945 41.3927 22.625 40.8125 22.625H32.0625C31.4823 22.625 30.9259 22.3945 30.5157 21.9843C30.1055 21.5741 29.875 21.0177 29.875 20.4375V11.6875ZM8 33.5625C8 32.9823 8.23047 32.4259 8.6407 32.0157C9.05094 31.6055 9.60734 31.375 10.1875 31.375H18.9375C19.5177 31.375 20.0741 31.6055 20.4843 32.0157C20.8945 32.4259 21.125 32.9823 21.125 33.5625V42.3125C21.125 42.8927 20.8945 43.4491 20.4843 43.8593C20.0741 44.2695 19.5177 44.5 18.9375 44.5H10.1875C9.60734 44.5 9.05094 44.2695 8.6407 43.8593C8.23047 43.4491 8 42.8927 8 42.3125V33.5625Z" stroke="#161614" stroke-width="3" stroke-linecap="round" stroke-linejoin="round"/>
</g>
<defs>
<filter id="filter0_i_959_159" x="-1.5" y="-1.5" width="52.5" height="55.5" filterUnits="userSpaceOnUse" color-interpolation-filters="sRGB">
<feFlood flood-opacity="0" result="BackgroundImageFix"/>
<feBlend mode="normal" in="SourceGraphic" in2="BackgroundImageFix" result="shape"/>
<feColorMatrix in="SourceAlpha" type="matrix" values="0 0 0 0 0 0 0 0 0 0 0 0 0 0 0 0 0 0 127 0" result="hardAlpha"/>
<feMorphology radius="1.5" operator="erode" in="SourceAlpha" result="effect1_innerShadow_959_159"/>
<feOffset dx="-2" dy="-2"/>
<feComposite in2="hardAlpha" operator="arithmetic" k2="-1" k3="1"/>
<feColorMatrix type="matrix" values="0 0 0 0 0 0 0 0 0 0 0 0 0 0 0 0 0 0 0.25 0"/>
<feBlend mode="normal" in2="shape" result="effect1_innerShadow_959_159"/>
</filter>
</defs>
</svg>
