<svg width="53" height="44" viewBox="0 0 53 44" fill="none" xmlns="http://www.w3.org/2000/svg">
<path d="M23.2372 3.08025C25.138 1.63349 28.0799 1.6408 29.97 3.09705L43.4439 13.4792C44.4367 14.2443 45 15.3124 45 16.43V37.9523C45 40.1878 42.7913 42 40.0667 42H35.1333C33.771 42 32.6667 41.0939 32.6667 39.9761V26.8214C32.6666 25.7037 31.5622 24.7976 30.2 24.7976H22.8C21.4378 24.7976 20.3334 25.7037 20.3333 26.8214V39.9761C20.3333 41.0939 19.229 42 17.8667 42H12.9333C10.2087 42 8 40.1878 8 37.9523V16.4438C8.00016 15.318 8.57191 14.243 9.5778 13.4772L23.2372 3.08025Z" fill="#161614" stroke="#161614" stroke-width="3"/>
</svg>
