<svg width="54" height="49" viewBox="0 0 54 49" fill="none" xmlns="http://www.w3.org/2000/svg">
<mask id="path-1-inside-1_345_1170" fill="white">
<path d="M26.6748 0C28.3315 0.000194307 29.6748 1.34327 29.6748 3V3.2793C29.6747 4.61116 28.8057 5.7382 27.6045 6.12988V11.9072H32.0234C34.7848 11.9073 37.0234 14.1459 37.0234 16.9072V18.7559H40.5811C42.5141 18.7559 44.0811 20.3229 44.0811 22.2559V25.8145H48.0693C50.8308 25.8145 53.0693 28.053 53.0693 30.8145V41.791C53.0691 44.5522 50.8306 46.791 48.0693 46.791H43.5879C42.9771 47.8143 41.8594 48.5 40.5811 48.5H12.4883C11.21 48.5 10.0923 47.8143 9.48145 46.791H5C2.23874 46.791 0.000263868 44.5522 0 41.791V30.8145C0 28.053 2.23858 25.8145 5 25.8145H8.98828V22.2559C8.98828 20.3229 10.5553 18.7559 12.4883 18.7559H16.0469V16.9072C16.0469 14.1458 18.2854 11.9072 21.0469 11.9072H25.4648V6.12988C24.264 5.73803 23.3956 4.61094 23.3955 3.2793V3C23.3955 1.34315 24.7387 0 26.3955 0H26.6748ZM4.7959 43.7812L5 43.791C4.8625 43.791 4.72833 43.7764 4.59863 43.75C4.66336 43.7632 4.72907 43.7745 4.7959 43.7812ZM23.8604 38.4414C22.9742 38.4415 22.2559 39.1607 22.2559 40.0469C22.256 40.9329 22.9743 41.6513 23.8604 41.6514H29.209C30.0951 41.6514 30.8143 40.9329 30.8145 40.0469C30.8145 39.1606 30.0952 38.4414 29.209 38.4414H23.8604ZM17.4414 30.9531C16.5555 30.9534 15.8371 31.6717 15.8369 32.5576V36.8369C15.8369 37.723 16.5554 38.4412 17.4414 38.4414C18.3276 38.4414 19.0469 37.7231 19.0469 36.8369V32.5576C19.0467 31.6716 18.3275 30.9531 17.4414 30.9531ZM35.6279 30.9531C34.7418 30.9531 34.0237 31.6716 34.0234 32.5576V36.8369C34.0234 37.7231 34.7417 38.4414 35.6279 38.4414C36.5142 38.4414 37.2324 37.7231 37.2324 36.8369V32.5576C37.2322 31.6716 36.514 30.9531 35.6279 30.9531Z"/>
</mask>
<path d="M26.6748 0C28.3315 0.000194307 29.6748 1.34327 29.6748 3V3.2793C29.6747 4.61116 28.8057 5.7382 27.6045 6.12988V11.9072H32.0234C34.7848 11.9073 37.0234 14.1459 37.0234 16.9072V18.7559H40.5811C42.5141 18.7559 44.0811 20.3229 44.0811 22.2559V25.8145H48.0693C50.8308 25.8145 53.0693 28.053 53.0693 30.8145V41.791C53.0691 44.5522 50.8306 46.791 48.0693 46.791H43.5879C42.9771 47.8143 41.8594 48.5 40.5811 48.5H12.4883C11.21 48.5 10.0923 47.8143 9.48145 46.791H5C2.23874 46.791 0.000263868 44.5522 0 41.791V30.8145C0 28.053 2.23858 25.8145 5 25.8145H8.98828V22.2559C8.98828 20.3229 10.5553 18.7559 12.4883 18.7559H16.0469V16.9072C16.0469 14.1458 18.2854 11.9072 21.0469 11.9072H25.4648V6.12988C24.264 5.73803 23.3956 4.61094 23.3955 3.2793V3C23.3955 1.34315 24.7387 0 26.3955 0H26.6748ZM4.7959 43.7812L5 43.791C4.8625 43.791 4.72833 43.7764 4.59863 43.75C4.66336 43.7632 4.72907 43.7745 4.7959 43.7812ZM23.8604 38.4414C22.9742 38.4415 22.2559 39.1607 22.2559 40.0469C22.256 40.9329 22.9743 41.6513 23.8604 41.6514H29.209C30.0951 41.6514 30.8143 40.9329 30.8145 40.0469C30.8145 39.1606 30.0952 38.4414 29.209 38.4414H23.8604ZM17.4414 30.9531C16.5555 30.9534 15.8371 31.6717 15.8369 32.5576V36.8369C15.8369 37.723 16.5554 38.4412 17.4414 38.4414C18.3276 38.4414 19.0469 37.7231 19.0469 36.8369V32.5576C19.0467 31.6716 18.3275 30.9531 17.4414 30.9531ZM35.6279 30.9531C34.7418 30.9531 34.0237 31.6716 34.0234 32.5576V36.8369C34.0234 37.7231 34.7417 38.4414 35.6279 38.4414C36.5142 38.4414 37.2324 37.7231 37.2324 36.8369V32.5576C37.2322 31.6716 36.514 30.9531 35.6279 30.9531Z" fill="#161614"/>
<path d="M26.6748 0L26.6789 -35H26.6748V0ZM29.6748 3.2793L64.6748 3.28183V3.2793H29.6748ZM27.6045 6.12988L16.7547 -27.146L-7.39551 -19.2716V6.12988H27.6045ZM27.6045 11.9072H-7.39551V46.9072H27.6045V11.9072ZM32.0234 11.9072L32.0245 -23.0928H32.0234V11.9072ZM37.0234 16.9072L2.02344 16.9072V16.9072H37.0234ZM37.0234 18.7559H2.02344V53.7559H37.0234V18.7559ZM44.0811 25.8145H9.08105V60.8145H44.0811V25.8145ZM53.0693 41.791L88.0693 41.7944V41.791H53.0693ZM43.5879 46.791V11.791H23.719L13.535 28.8515L43.5879 46.791ZM12.4883 48.5L12.4873 83.5H12.4883V48.5ZM9.48145 46.791L39.534 28.851L29.3499 11.791H9.48145V46.791ZM0 41.791H-35V41.7944L0 41.791ZM5 25.8145L5 -9.18555H5L5 25.8145ZM8.98828 25.8145V60.8145H43.9883V25.8145H8.98828ZM8.98828 22.2559L-26.0117 22.2559V22.2559H8.98828ZM12.4883 18.7559V-16.2441H12.4873L12.4883 18.7559ZM16.0469 18.7559V53.7559H51.0469V18.7559H16.0469ZM16.0469 16.9072L-18.9531 16.9072V16.9072H16.0469ZM21.0469 11.9072L21.0469 46.9072H21.0469V11.9072ZM25.4648 11.9072V46.9072H60.4648V11.9072H25.4648ZM25.4648 6.12988H60.4648V-19.2654L36.3224 -27.1434L25.4648 6.12988ZM23.3955 3.2793H-11.6045V3.28183L23.3955 3.2793ZM23.3955 3L-11.6045 2.99999V3H23.3955ZM4.7959 43.7812L1.26696 78.6029L2.19323 78.6968L3.12317 78.7413L4.7959 43.7812ZM5 43.791V78.791L6.67273 8.83101L5 43.791ZM4.59863 43.75L11.5868 9.45473L-2.39228 78.0447L4.59863 43.75ZM23.8604 38.4414V3.44141L23.8572 3.44141L23.8604 38.4414ZM22.2559 40.0469H-12.7441L-12.7441 40.0539L22.2559 40.0469ZM23.8604 41.6514L23.8572 76.6514H23.8604V41.6514ZM29.209 41.6514L29.209 6.65137H29.209V41.6514ZM30.8145 40.0469L65.8145 40.0539V40.0469H30.8145ZM29.209 38.4414L29.209 3.44141H29.209V38.4414ZM17.4414 30.9531V-4.04688L17.4315 -4.04687L17.4414 30.9531ZM15.8369 32.5576L-19.1631 32.549V32.5576H15.8369ZM17.4414 38.4414L17.4315 73.4414H17.4414V38.4414ZM19.0469 32.5576H54.0469V32.549L19.0469 32.5576ZM35.6279 30.9531V-4.04688H35.6278L35.6279 30.9531ZM34.0234 32.5576L-0.976562 32.549V32.5576H34.0234ZM35.6279 38.4414L35.6278 73.4414H35.6279V38.4414ZM37.2324 32.5576H72.2324V32.549L37.2324 32.5576ZM26.6748 0L26.6707 35C9.00472 34.9979 -5.3252 20.6773 -5.3252 3H29.6748H64.6748C64.6748 -17.9908 47.6583 -34.9975 26.6789 -35L26.6748 0ZM29.6748 3H-5.3252V3.2793H29.6748H64.6748V3H29.6748ZM29.6748 3.2793L-5.3252 3.27676C-5.32416 -11.0302 4.02499 -22.9954 16.7547 -27.146L27.6045 6.12988L38.4543 39.4057C53.5865 34.4718 64.6736 20.2526 64.6748 3.28183L29.6748 3.2793ZM27.6045 6.12988H-7.39551V11.9072H27.6045H62.6045V6.12988H27.6045ZM27.6045 11.9072V46.9072H32.0234V11.9072V-23.0928H27.6045V11.9072ZM32.0234 11.9072L32.0224 46.9072C15.4556 46.9067 2.02344 33.4768 2.02344 16.9072L37.0234 16.9072L72.0234 16.9072C72.0234 -5.18513 54.114 -23.0921 32.0245 -23.0928L32.0234 11.9072ZM37.0234 16.9072H2.02344V18.7559H37.0234H72.0234V16.9072H37.0234ZM37.0234 18.7559V53.7559H40.5811V18.7559V-16.2441H37.0234V18.7559ZM40.5811 18.7559V53.7559C23.1841 53.7559 9.08105 39.6528 9.08105 22.2559H44.0811H79.0811C79.0811 0.992905 61.844 -16.2441 40.5811 -16.2441V18.7559ZM44.0811 22.2559H9.08105V25.8145H44.0811H79.0811V22.2559H44.0811ZM44.0811 25.8145V60.8145H48.0693V25.8145V-9.18555H44.0811V25.8145ZM48.0693 25.8145V60.8145C31.5008 60.8145 18.0693 47.383 18.0693 30.8145H53.0693H88.0693C88.0693 8.72308 70.1607 -9.18555 48.0693 -9.18555V25.8145ZM53.0693 30.8145H18.0693V41.791H53.0693H88.0693V30.8145H53.0693ZM53.0693 41.791L18.0693 41.7877C18.0709 25.2248 31.4973 11.791 48.0693 11.791V46.791V81.791C70.1639 81.791 88.0672 63.8796 88.0693 41.7944L53.0693 41.791ZM48.0693 46.791V11.791H43.5879V46.791V81.791H48.0693V46.791ZM43.5879 46.791L13.535 28.8515C18.9707 19.7455 29.0202 13.5 40.5811 13.5V48.5V83.5C54.6986 83.5 66.9834 75.8831 73.6407 64.7305L43.5879 46.791ZM40.5811 48.5V13.5H12.4883V48.5V83.5H40.5811V48.5ZM12.4883 48.5L12.4893 13.5C24.049 13.5003 34.0982 19.7451 39.534 28.851L9.48145 46.791L-20.5711 64.731C-13.9136 75.8835 -1.62904 83.4996 12.4873 83.5L12.4883 48.5ZM9.48145 46.791V11.791H5V46.791V81.791H9.48145V46.791ZM5 46.791V11.791C21.572 11.791 34.9984 25.2249 35 41.7877L0 41.791L-35 41.7944C-34.9979 63.8796 -17.0946 81.791 5 81.791V46.791ZM0 41.791H35V30.8145H0H-35V41.791H0ZM0 30.8145H35C35 47.383 21.5685 60.8145 5 60.8145L5 25.8145L5 -9.18555C-17.0913 -9.18555 -35 8.72302 -35 30.8145H0ZM5 25.8145V60.8145H8.98828V25.8145V-9.18555H5V25.8145ZM8.98828 25.8145H43.9883V22.2559H8.98828H-26.0117V25.8145H8.98828ZM8.98828 22.2559L43.9883 22.2559C43.9883 39.6538 29.8846 53.7554 12.4893 53.7559L12.4883 18.7559L12.4873 -16.2441C-8.7739 -16.2436 -26.0117 0.991978 -26.0117 22.2559L8.98828 22.2559ZM12.4883 18.7559V53.7559H16.0469V18.7559V-16.2441H12.4883V18.7559ZM16.0469 18.7559H51.0469V16.9072H16.0469H-18.9531V18.7559H16.0469ZM16.0469 16.9072L51.0469 16.9072C51.0469 33.4758 37.6154 46.9072 21.0469 46.9072L21.0469 11.9072L21.0469 -23.0928C-1.04453 -23.0928 -18.9531 -5.18415 -18.9531 16.9072L16.0469 16.9072ZM21.0469 11.9072V46.9072H25.4648V11.9072V-23.0928H21.0469V11.9072ZM25.4648 11.9072H60.4648V6.12988H25.4648H-9.53516V11.9072H25.4648ZM25.4648 6.12988L36.3224 -27.1434C49.0565 -22.9881 58.3945 -11.0193 58.3955 3.27677L23.3955 3.2793L-11.6045 3.28183C-11.6033 20.2412 -0.528508 34.4642 14.6073 39.4032L25.4648 6.12988ZM23.3955 3.2793H58.3955V3H23.3955H-11.6045V3.2793H23.3955ZM23.3955 3L58.3955 3.00001C58.3955 20.6731 44.0686 35 26.3955 35V0V-35C5.40868 -35 -11.6045 -17.9868 -11.6045 2.99999L23.3955 3ZM26.3955 0V35H26.6748V0V-35H26.3955V0ZM4.7959 43.7812L3.12317 78.7413L3.32727 78.751L5 43.791L6.67273 8.83101L6.46863 8.82124L4.7959 43.7812ZM5 43.791V8.79102C7.346 8.79102 9.55423 9.04056 11.5868 9.45473L4.59863 43.75L-2.38956 78.0453C-0.0975715 78.5123 2.379 78.791 5 78.791V43.791ZM4.59863 43.75L-2.39228 78.0447C-1.64862 78.1963 -0.354282 78.4386 1.26696 78.6029L4.7959 43.7812L8.32483 8.95961C9.81242 9.11037 10.9753 9.33008 11.5895 9.45529L4.59863 43.75ZM23.8604 38.4414L23.8572 3.44141C3.61892 3.44321 -12.7441 19.8554 -12.7441 40.0469H22.2559H57.2559C57.2559 58.466 42.3295 73.4398 23.8635 73.4414L23.8604 38.4414ZM22.2559 40.0469L-12.7441 40.0539C-12.7401 60.2606 3.63981 76.6496 23.8572 76.6514L23.8604 41.6514L23.8635 6.65137C42.3088 6.65302 57.2522 21.6052 57.2559 40.0399L22.2559 40.0469ZM23.8604 41.6514V76.6514H29.209V41.6514V6.65137H23.8604V41.6514ZM29.209 41.6514L29.209 76.6514C49.4043 76.6514 65.8104 60.2852 65.8145 40.0539L30.8145 40.0469L-4.18555 40.0399C-4.18186 21.5807 10.7859 6.65137 29.209 6.65137L29.209 41.6514ZM30.8145 40.0469H65.8145C65.8145 19.8307 49.4252 3.44141 29.209 3.44141L29.209 38.4414L29.209 73.4414C10.7652 73.4414 -4.18555 58.4906 -4.18555 40.0469H30.8145ZM29.209 38.4414V3.44141H23.8604V38.4414V73.4414H29.209V38.4414ZM17.4414 30.9531L17.4315 -4.04687C-2.77527 -4.04113 -19.1581 12.3385 -19.1631 32.549L15.8369 32.5576L50.8369 32.5662C50.8324 51.0049 35.8863 65.9479 17.4514 65.9531L17.4414 30.9531ZM15.8369 32.5576H-19.1631V36.8369H15.8369H50.8369V32.5576H15.8369ZM15.8369 36.8369H-19.1631C-19.1631 57.0629 -2.76684 73.4357 17.4315 73.4414L17.4414 38.4414L17.4514 3.44141C35.8776 3.44665 50.8369 18.3831 50.8369 36.8369H15.8369ZM17.4414 38.4414V73.4414C37.6299 73.4414 54.0469 57.0808 54.0469 36.8369H19.0469H-15.9531C-15.9531 18.3654 -0.974594 3.44141 17.4414 3.44141V38.4414ZM19.0469 36.8369H54.0469V32.5576H19.0469H-15.9531V36.8369H19.0469ZM19.0469 32.5576L54.0469 32.549C54.0419 12.3206 37.6383 -4.04688 17.4414 -4.04688V30.9531V65.9531C-0.983332 65.9531 -15.9486 51.0226 -15.9531 32.5662L19.0469 32.5576ZM35.6279 30.9531L35.6278 -4.04688C15.4035 -4.04677 -0.971597 12.3481 -0.976561 32.549L34.0234 32.5576L69.0234 32.5662C69.0189 50.995 54.0802 65.953 35.6281 65.9531L35.6279 30.9531ZM34.0234 32.5576H-0.976562V36.8369H34.0234H69.0234V32.5576H34.0234ZM34.0234 36.8369H-0.976562C-0.976562 57.0533 15.4119 73.4413 35.6278 73.4414L35.6279 38.4414L35.6281 3.44141C54.0715 3.4415 69.0234 18.393 69.0234 36.8369H34.0234ZM35.6279 38.4414V73.4414C55.8441 73.4414 72.2324 57.0531 72.2324 36.8369H37.2324H2.23242C2.23242 18.3932 17.1842 3.44141 35.6279 3.44141V38.4414ZM37.2324 36.8369H72.2324V32.5576H37.2324H2.23242V36.8369H37.2324ZM37.2324 32.5576L72.2324 32.549C72.2274 12.3483 55.8526 -4.04688 35.6279 -4.04688V30.9531V65.9531C17.1755 65.9531 2.23697 50.9948 2.23242 32.5663L37.2324 32.5576Z" fill="#161614" mask="url(#path-1-inside-1_345_1170)"/>
</svg>
