<svg width="53" height="48" viewBox="0 0 53 48" fill="none" xmlns="http://www.w3.org/2000/svg">
<path d="M24.3852 40.4634C24.3852 39.4226 23.5851 38.5649 22.554 38.4228C21.174 38.2326 19.9962 37.9674 19.0205 37.6271C18.512 37.4345 18.0523 37.2547 17.6416 37.0877C16.6954 36.7029 16.2705 35.6363 16.6274 34.6793L17.169 33.2273C17.5815 32.1212 18.8592 31.6117 19.97 32.011C20.5059 32.2036 21.0759 32.3882 21.6803 32.565C23.153 32.9868 24.7008 33.1977 26.3238 33.1977C28.1571 33.1977 29.4044 32.9567 30.0656 32.4746C30.7568 31.9623 31.1025 31.2542 31.1025 30.3503C31.1025 29.7778 30.9672 29.2957 30.6967 28.904C30.4262 28.4821 30.0355 28.1055 29.5246 27.774C29.0137 27.4426 28.3675 27.1262 27.5861 26.8249C26.8046 26.4934 25.903 26.1469 24.8811 25.7853C23.8893 25.4237 22.9126 25.032 21.9508 24.6102C21.0191 24.1582 20.1626 23.6158 19.3811 22.9831C18.6298 22.3503 18.0137 21.5819 17.5328 20.678C17.082 19.7439 16.8566 18.629 16.8566 17.3333C16.8566 16.339 16.9918 15.3898 17.2623 14.4859C17.5628 13.5518 18.0137 12.7081 18.6148 11.9548C19.2158 11.2015 19.9973 10.5687 20.959 10.0565C21.5036 9.74937 22.1061 9.49055 22.7663 9.28004C23.6869 8.98653 24.3852 8.1792 24.3852 7.21297V6C24.3852 4.89543 25.2807 4 26.3852 4H28.0656C29.1701 4 30.0656 4.89543 30.0656 6V6.88409C30.0656 7.91433 30.8499 8.7662 31.8682 8.92294C32.6836 9.04845 33.4202 9.20031 34.0779 9.37853C34.4864 9.48631 34.8641 9.59409 35.2111 9.70188C36.1374 9.98959 36.6064 10.9669 36.3644 11.9062L35.9654 13.4549C35.66 14.6398 34.3677 15.2776 33.1901 14.9454C32.7833 14.8306 32.358 14.7226 31.9139 14.6215C30.6216 14.3202 29.2541 14.1695 27.8115 14.1695C26.3689 14.1695 25.332 14.4105 24.7008 14.8927C24.0697 15.3748 23.7541 16.0075 23.7541 16.791C23.7541 17.2731 23.8443 17.6949 24.0246 18.0565C24.235 18.3879 24.5505 18.6893 24.9713 18.9605C25.3921 19.2316 25.903 19.5028 26.5041 19.774C27.1352 20.0151 27.8866 20.2863 28.7582 20.5876C30.0806 21.0697 31.2978 21.597 32.4098 22.1695C33.5519 22.742 34.5287 23.4049 35.3402 24.1582C36.1817 24.8814 36.8279 25.7401 37.2787 26.7345C37.7596 27.7288 38 28.8889 38 30.2147C38 31.1186 37.8648 32.0226 37.5943 32.9266C37.3238 33.8004 36.8729 34.6139 36.2418 35.3672C35.6107 36.1205 34.7842 36.7684 33.7623 37.3107C33.1691 37.6351 32.4898 37.9056 31.7246 38.1223C30.7818 38.3891 30.0656 39.2052 30.0656 40.1851V42C30.0656 43.1046 29.1701 44 28.0656 44H26.3852C25.2807 44 24.3852 43.1046 24.3852 42V40.4634Z" fill="#161614"/>
</svg>
