<svg width="53" height="48" viewBox="0 0 53 48" fill="none" xmlns="http://www.w3.org/2000/svg">
<path d="M38.2426 5.82843L38.3117 5.90439C38.6319 6.29715 38.6087 6.87659 38.2426 7.24264C38.0793 7.40601 37.8733 7.49976 37.6605 7.52645L32.6804 12.5066C32.6502 12.5368 32.6232 12.5688 32.5989 12.6019L32.534 12.7055L32.4801 12.7952C31.6479 14.0422 31.7836 15.7444 32.8834 16.8445L33.0968 17.0399C34.1964 17.9589 35.7679 18.0271 36.9375 17.243L37.0252 17.1912C37.0972 17.1529 37.1629 17.1046 37.2207 17.0468L42.2022 12.0653C42.2292 11.8533 42.3225 11.6481 42.4853 11.4853C42.8758 11.0948 43.509 11.0948 43.8995 11.4853L44.048 11.6337C44.0856 11.6714 44.1184 11.7122 44.1488 11.7539C46.2373 14.1107 46.1558 17.7143 43.8995 19.9706L38.9497 24.9203C36.4948 27.3753 32.6735 27.6224 29.9397 25.6688L16.4342 39.1743C15.2992 40.3094 13.481 40.3444 12.3034 39.2807L12.1916 39.1743L10.5536 37.5364C9.38256 36.3649 9.382 34.4653 10.5536 33.2937L24.0591 19.7883C22.1056 17.0545 22.3526 13.2332 24.8076 10.7782L29.7574 5.82843L29.9756 5.62127C32.2401 3.56982 35.6903 3.55652 37.9726 5.57776C38.0146 5.60829 38.0556 5.64139 38.0935 5.67927L38.2426 5.82843Z" fill="#161614" stroke="#161614" stroke-width="2" stroke-linejoin="round"/>
</svg>
