<svg width="400" height="230" viewBox="0 0 400 230" fill="none" xmlns="http://www.w3.org/2000/svg">
<rect width="400" height="230" fill="#E9E8E3"/>
<path d="M123.299 49.5556H152.062L171.237 31H228.763L247.938 49.5556H276.701C281.787 49.5556 286.664 51.5105 290.26 54.9904C293.856 58.4702 295.876 63.1899 295.876 68.1111V179.444C295.876 184.366 293.856 189.085 290.26 192.565C286.664 196.045 281.787 198 276.701 198H123.299C118.213 198 113.336 196.045 109.74 192.565C106.144 189.085 104.124 184.366 104.124 179.444V68.1111C104.124 63.1899 106.144 58.4702 109.74 54.9904C113.336 51.5105 118.213 49.5556 123.299 49.5556ZM200 77.3889C187.286 77.3889 175.093 82.2763 166.103 90.9759C157.113 99.6755 152.062 111.475 152.062 123.778C152.062 136.081 157.113 147.88 166.103 156.58C175.093 165.279 187.286 170.167 200 170.167C212.714 170.167 224.907 165.279 233.897 156.58C242.888 147.88 247.938 136.081 247.938 123.778C247.938 111.475 242.888 99.6755 233.897 90.9759C224.907 82.2763 212.714 77.3889 200 77.3889ZM200 95.9444C207.628 95.9444 214.944 98.8769 220.339 104.097C225.733 109.316 228.763 116.396 228.763 123.778C228.763 131.16 225.733 138.239 220.339 143.459C214.944 148.679 207.628 151.611 200 151.611C192.372 151.611 185.056 148.679 179.662 143.459C174.268 138.239 171.237 131.16 171.237 123.778C171.237 116.396 174.268 109.316 179.662 104.097C185.056 98.8769 192.372 95.9444 200 95.9444Z" fill="#FEFEFE"/>
</svg>
