<svg width="129" height="121" viewBox="0 0 129 121" fill="none" xmlns="http://www.w3.org/2000/svg">
<path d="M20.9306 89.2413H22.5284C23.3479 89.2413 24.0073 89.0652 24.5072 88.7129C25.0069 88.3606 25.2568 87.8399 25.2568 87.151C25.2568 86.4777 25.0194 85.965 24.5441 85.6125C24.0688 85.2602 23.3397 85.0841 22.3565 85.0841C22.0777 85.0841 21.8239 85.0919 21.5945 85.1076C21.365 85.1233 21.1436 85.1545 20.9306 85.2016V89.2413ZM22.8726 92.0127H17.219V83.8159C17.219 83.5184 17.3092 83.2835 17.4895 83.1112C17.6696 82.9391 17.9072 82.806 18.2022 82.712C18.743 82.524 19.378 82.391 20.1073 82.3126C20.8365 82.2343 21.5945 82.1953 22.3809 82.1953C24.5932 82.1953 26.2564 82.6375 27.3709 83.5222C28.4852 84.4069 29.0424 85.6087 29.0424 87.1274C29.0424 88.0669 28.7761 88.9085 28.2435 89.6523C27.7109 90.3961 26.9816 90.9755 26.0557 91.3903C25.13 91.8052 24.0688 92.0127 22.8726 92.0127ZM22.1843 91.1673L25.5273 90.4157C25.9042 90.9167 26.2933 91.4099 26.6949 91.8954C27.0964 92.3807 27.4815 92.8503 27.8502 93.3044C28.2189 93.7586 28.5507 94.1775 28.8456 94.561C29.1406 94.9446 29.3782 95.2695 29.5585 95.5356C29.4111 96.0055 29.1488 96.3694 28.7719 96.6279C28.395 96.8861 27.969 97.0154 27.4937 97.0154C26.8874 97.0154 26.4246 96.8861 26.105 96.6279C25.7854 96.3694 25.4862 96.029 25.2077 95.6061L22.1843 91.1673ZM17.219 90.6739H20.9553V96.7805C20.8078 96.8276 20.5702 96.8706 20.2424 96.9097C19.9148 96.9489 19.5787 96.9685 19.2347 96.9685C18.4971 96.9685 17.977 96.8431 17.6738 96.5927C17.3707 96.342 17.219 95.9036 17.219 95.2774V90.6739ZM43.3237 91.1673C43.3237 92.3886 43.0657 93.4494 42.5493 94.3496C42.0331 95.25 41.308 95.9429 40.3739 96.4282C39.44 96.9135 38.3419 97.1563 37.0802 97.1563C35.8347 97.1563 34.7409 96.9175 33.7986 96.4401C32.8564 95.9624 32.1271 95.2736 31.6109 94.3732C31.0948 93.4728 30.8367 92.4043 30.8367 91.1673C30.8367 89.9303 31.0988 88.8695 31.6231 87.9848C32.1475 87.1001 32.8809 86.411 33.8232 85.9179C34.7655 85.4247 35.8511 85.1781 37.0802 85.1781C38.3255 85.1781 39.4153 85.4247 40.3494 85.9179C41.2834 86.411 42.0127 87.1079 42.5371 88.0081C43.0614 88.9085 43.3237 89.9615 43.3237 91.1673ZM37.0802 87.926C36.31 87.926 35.6995 88.2078 35.2488 88.7714C34.7982 89.3353 34.573 90.1338 34.573 91.1673C34.573 92.2163 34.7942 93.0188 35.2366 93.5746C35.679 94.1304 36.2936 94.4084 37.0802 94.4084C37.8667 94.4084 38.4812 94.1266 38.9236 93.563C39.3662 92.9991 39.5874 92.2006 39.5874 91.1673C39.5874 90.1495 39.3662 89.3548 38.9236 88.7833C38.4812 88.2119 37.8667 87.926 37.0802 87.926ZM51.8531 85.1781C52.9182 85.1781 53.8852 85.4012 54.7536 85.8474C55.6222 86.2937 56.3105 86.9592 56.8184 87.8439C57.3263 88.7286 57.5804 89.8206 57.5804 91.1202C57.5804 92.4355 57.3141 93.5394 56.7816 94.4319C56.249 95.3243 55.4992 96.0017 54.5324 96.4634C53.5656 96.9254 52.4349 97.1563 51.1404 97.1563C50.1243 97.1563 49.2517 97.0389 48.5223 96.804C47.7932 96.5691 47.1829 96.2951 46.6911 95.9819C46.3471 95.7472 46.0888 95.4887 45.9169 95.2069C45.7448 94.9251 45.6588 94.5962 45.6588 94.2206V86.7752H49.2721V93.9621C49.4689 94.0718 49.7227 94.1735 50.0341 94.2675C50.3455 94.3615 50.6977 94.4084 51.091 94.4084C51.9268 94.4084 52.5946 94.1344 53.0943 93.5863C53.5943 93.0384 53.8441 92.2162 53.8441 91.1202C53.8441 90.0084 53.6025 89.1982 53.119 88.6893C52.6355 88.1805 51.9923 87.926 51.1894 87.926C50.6651 87.926 50.198 88.02 49.7882 88.2078C49.3787 88.3958 49.0262 88.6072 48.7313 88.8419L48.6331 86.0235C49.01 85.82 49.4729 85.6282 50.0219 85.4483C50.5709 85.2681 51.1812 85.1781 51.8531 85.1781ZM49.2967 87.5973H45.6588V81.5141C45.8063 81.4672 46.0275 81.4203 46.3225 81.3732C46.6174 81.3263 46.937 81.3027 47.281 81.3027C47.9857 81.3027 48.4979 81.4203 48.8175 81.655C49.1368 81.8899 49.2967 82.3205 49.2967 82.9469V87.5973ZM71.7883 91.1673C71.7883 92.3886 71.5302 93.4494 71.0138 94.3496C70.4977 95.25 69.7725 95.9429 68.8384 96.4282C67.9045 96.9135 66.8064 97.1563 65.5447 97.1563C64.2992 97.1563 63.2054 96.9175 62.2631 96.4401C61.3209 95.9624 60.5916 95.2736 60.0754 94.3732C59.5593 93.4728 59.3012 92.4043 59.3012 91.1673C59.3012 89.9303 59.5633 88.8695 60.0877 87.9848C60.612 87.1001 61.3454 86.411 62.2877 85.9179C63.2301 85.4247 64.3157 85.1781 65.5447 85.1781C66.79 85.1781 67.8798 85.4247 68.814 85.9179C69.7479 86.411 70.4772 87.1079 71.0016 88.0081C71.526 88.9085 71.7883 89.9615 71.7883 91.1673ZM65.5447 87.926C64.7745 87.926 64.164 88.2078 63.7133 88.7714C63.2627 89.3353 63.0375 90.1338 63.0375 91.1673C63.0375 92.2163 63.2587 93.0188 63.7011 93.5746C64.1435 94.1304 64.7581 94.4084 65.5447 94.4084C66.3312 94.4084 66.9457 94.1266 67.3881 93.563C67.8307 92.9991 68.052 92.2006 68.052 91.1673C68.052 90.1495 67.8307 89.3548 67.3881 88.7833C66.9457 88.2119 66.3312 87.926 65.5447 87.926ZM64.0698 82.0779L66.5279 79.5178C67.2653 79.5178 67.8225 79.6704 68.1994 79.9758C68.5763 80.2811 68.7647 80.6218 68.7647 80.9974C68.7647 81.3263 68.6909 81.6003 68.5434 81.8195C68.396 82.0387 68.1501 82.2893 67.8061 82.5711L65.471 84.4736C64.8482 84.4736 64.373 84.3286 64.0452 84.039C63.7176 83.7493 63.5537 83.4401 63.5537 83.1112C63.5537 82.9234 63.5945 82.7511 63.6765 82.5944C63.7584 82.438 63.8895 82.2657 64.0698 82.0779ZM74.0987 90.6035H77.7119V93.1166C77.7119 93.5551 77.8596 93.876 78.1546 94.0795C78.4495 94.2832 78.8673 94.3848 79.4081 94.3848C79.6539 94.3848 79.9202 94.3575 80.207 94.3027C80.4937 94.248 80.7355 94.1813 80.9321 94.103C81.0631 94.2439 81.182 94.4162 81.2886 94.6197C81.3952 94.8232 81.4482 95.0582 81.4482 95.3243C81.4482 95.8567 81.2188 96.2951 80.76 96.6395C80.3011 96.9842 79.5311 97.1563 78.4495 97.1563C77.073 97.1563 76.0036 96.8588 75.2416 96.2637C74.4796 95.6689 74.0987 94.698 74.0987 93.3514V90.6035ZM76.4094 88.4663V85.7886H81.1289C81.2106 85.914 81.2926 86.094 81.3745 86.3289C81.4565 86.5638 81.4976 86.8221 81.4976 87.1039C81.4976 87.5737 81.3869 87.9181 81.1657 88.1373C80.9443 88.3566 80.6454 88.4663 80.2685 88.4663H76.4094ZM77.7119 91.1906H74.0987V82.7589C74.2626 82.712 74.492 82.6611 74.787 82.6063C75.0819 82.5516 75.3933 82.524 75.7211 82.524C76.4256 82.524 76.9337 82.6416 77.2451 82.8765C77.5565 83.1112 77.7119 83.5418 77.7119 84.1682V91.1906ZM83.5624 82.2893C83.5624 81.7569 83.7549 81.3106 84.14 80.9504C84.5251 80.5903 85.0126 80.4102 85.6025 80.4102C86.2088 80.4102 86.7006 80.5903 87.0774 80.9504C87.4543 81.3106 87.6427 81.7569 87.6427 82.2893C87.6427 82.806 87.4543 83.2521 87.0774 83.6279C86.7006 84.0037 86.2088 84.1915 85.6025 84.1915C85.0126 84.1915 84.5251 84.0037 84.14 83.6279C83.7549 83.2521 83.5624 82.806 83.5624 82.2893ZM83.7836 90.6035H87.4215V96.7805C87.274 96.8276 87.0528 96.8706 86.7579 96.9097C86.4629 96.9489 86.1433 96.9685 85.7991 96.9685C85.0946 96.9685 84.5824 96.8509 84.2628 96.6162C83.9433 96.3813 83.7836 95.9586 83.7836 95.3478V90.6035ZM87.4215 92.4119H83.7836V85.6713C83.931 85.6244 84.1565 85.5773 84.4596 85.5304C84.7628 85.4835 85.0864 85.4599 85.4304 85.4599C86.1351 85.4599 86.643 85.5734 86.9544 85.8005C87.2658 86.0276 87.4215 86.462 87.4215 87.1039V92.4119ZM96.7377 87.9495C95.8526 87.9495 95.0948 88.2274 94.4639 88.7833C93.8329 89.3391 93.5175 90.1495 93.5175 91.2142C93.5175 92.2631 93.8207 93.0541 94.427 93.5863C95.0333 94.1187 95.7953 94.3848 96.713 94.3848C97.2538 94.3848 97.7249 94.3184 98.1264 94.1853C98.528 94.0521 98.8762 93.9074 99.1712 93.7507C99.4497 93.9386 99.6627 94.1461 99.8101 94.3732C99.9576 94.6002 100.031 94.878 100.031 95.2069C100.031 95.7862 99.7037 96.2561 99.0481 96.6162C98.3927 96.9763 97.4832 97.1563 96.3197 97.1563C95.0251 97.1563 93.8862 96.9332 92.903 96.487C91.9198 96.0407 91.1578 95.3714 90.617 94.4788C90.0762 93.5863 89.8059 92.498 89.8059 91.2142C89.8059 89.852 90.1008 88.7286 90.6907 87.8439C91.2806 86.9592 92.0632 86.2937 93.0382 85.8474C94.0132 85.4012 95.0742 85.1781 96.2213 85.1781C97.3522 85.1781 98.241 85.3738 98.8884 85.7653C99.5356 86.1566 99.8594 86.6422 99.8594 87.2215C99.8594 87.5033 99.7897 87.7577 99.6504 87.9848C99.5112 88.2118 99.3513 88.4113 99.1712 88.5837C98.8598 88.427 98.5033 88.2823 98.1018 88.1492C97.7002 88.016 97.2456 87.9495 96.7377 87.9495ZM107.185 94.5729C107.561 94.5729 107.934 94.5376 108.303 94.4672C108.672 94.3967 108.938 94.3143 109.102 94.2206V91.9658L107.037 92.1537C106.48 92.1851 106.037 92.2945 105.71 92.4823C105.382 92.6704 105.218 92.9522 105.218 93.328C105.218 93.7039 105.374 94.0052 105.685 94.2322C105.996 94.4593 106.496 94.5729 107.185 94.5729ZM107.037 85.1781C108.741 85.1781 110.101 85.5187 111.117 86.1997C112.133 86.8809 112.641 87.9339 112.641 89.3586V94.6902C112.641 95.0817 112.535 95.3988 112.322 95.6413C112.109 95.8841 111.838 96.0916 111.511 96.2637C111.019 96.5458 110.409 96.7688 109.679 96.9332C108.95 97.0975 108.118 97.1798 107.185 97.1798C105.513 97.1798 104.182 96.8666 103.19 96.2404C102.199 95.614 101.703 94.6823 101.703 93.4454C101.703 92.3807 102.047 91.5626 102.735 90.9909C103.424 90.4195 104.448 90.0712 105.808 89.9458L109.077 89.6171V89.3353C109.077 88.8029 108.86 88.4192 108.426 88.1845C107.992 87.9496 107.373 87.832 106.57 87.832C105.947 87.832 105.337 87.9024 104.739 88.0433C104.141 88.1845 103.604 88.3487 103.129 88.5367C102.932 88.4113 102.764 88.2197 102.625 87.9612C102.485 87.703 102.416 87.4328 102.416 87.151C102.416 86.4934 102.793 86.0157 103.546 85.7182C104.022 85.5304 104.575 85.3933 105.206 85.3073C105.837 85.2212 106.447 85.1781 107.037 85.1781ZM5.13748 118.088C6.02231 118.088 6.65728 117.935 7.04239 117.629C7.4275 117.324 7.62006 116.96 7.62006 116.537C7.62006 116.146 7.46837 115.829 7.16521 115.586C6.86205 115.343 6.41564 115.136 5.82576 114.964L4.52295 114.564C3.6379 114.283 2.85547 113.969 2.17541 113.625C1.49536 113.281 0.970994 112.834 0.602317 112.286C0.233641 111.738 0.049082 111.041 0.049082 110.196C0.049082 108.896 0.565451 107.863 1.59775 107.096C2.63026 106.328 4.0641 105.945 5.89949 105.945C6.8334 105.945 7.66514 106.031 8.39428 106.203C9.12364 106.375 9.69709 106.63 10.1151 106.967C10.5328 107.303 10.7418 107.714 10.7418 108.2C10.7418 108.56 10.6559 108.869 10.4837 109.127C10.3116 109.386 10.0944 109.609 9.83234 109.797C9.45545 109.546 8.95551 109.331 8.33298 109.151C7.71023 108.971 7.02196 108.881 6.26817 108.881C5.48151 108.881 4.89163 109.002 4.4983 109.245C4.10497 109.487 3.90842 109.804 3.90842 110.196C3.90842 110.509 4.03945 110.764 4.30175 110.959C4.56382 111.155 4.95715 111.331 5.48151 111.488L6.8334 111.887C8.32476 112.325 9.47188 112.909 10.2748 113.637C11.0778 114.365 11.4792 115.339 11.4792 116.561C11.4792 117.876 10.9466 118.945 9.88142 119.767C8.81626 120.589 7.27603 121 5.2603 121C4.26066 121 3.36762 120.898 2.58096 120.695C1.79452 120.491 1.16755 120.194 0.700487 119.802C0.233644 119.41 0 118.957 0 118.44C0 118.033 0.127036 117.684 0.381112 117.395C0.634966 117.105 0.917691 116.89 1.22907 116.749C1.67148 117.093 2.2245 117.402 2.88834 117.677C3.55196 117.95 4.30174 118.088 5.13748 118.088ZM13.6668 116.208V114.518H17.3047V116.185C17.3047 116.905 17.4973 117.422 17.8824 117.735C18.2675 118.048 18.8125 118.205 19.517 118.205C19.9596 118.205 20.3283 118.166 20.6232 118.088C20.9182 118.009 21.1394 117.931 21.2869 117.853V114.518H24.9494V118.275C24.9494 118.651 24.8717 118.972 24.716 119.238C24.5603 119.504 24.3102 119.739 23.9662 119.943C23.4418 120.256 22.7987 120.503 22.0367 120.683C21.2746 120.863 20.4265 120.953 19.4926 120.953C18.329 120.953 17.3089 120.788 16.4321 120.46C15.5555 120.131 14.8754 119.618 14.3919 118.921C13.9087 118.224 13.6668 117.32 13.6668 116.208ZM24.9494 115.574H21.2869V109.374C21.4508 109.327 21.6802 109.28 21.9751 109.233C22.2701 109.186 22.5897 109.162 22.9337 109.162C23.6384 109.162 24.1505 109.276 24.4701 109.503C24.7897 109.73 24.9494 110.165 24.9494 110.807V115.574ZM17.3047 115.574H13.6668V109.374C13.8143 109.327 14.0355 109.28 14.3306 109.233C14.6256 109.186 14.945 109.162 15.2892 109.162C15.9939 109.162 16.5058 109.276 16.8254 109.503C17.145 109.73 17.3047 110.165 17.3047 110.807V115.574ZM37.3383 117.312C37.3383 118.456 36.8877 119.352 35.9862 120.002C35.0849 120.651 33.7739 120.976 32.0533 120.976C30.7097 120.976 29.6034 120.788 28.735 120.413C27.8664 120.037 27.4322 119.481 27.4322 118.745C27.4322 118.416 27.506 118.13 27.6534 117.888C27.8009 117.645 27.9892 117.453 28.2186 117.312C28.6775 117.563 29.2143 117.794 29.8288 118.005C30.4434 118.217 31.1439 118.322 31.9305 118.322C33.1267 118.322 33.7248 117.994 33.7248 117.336C33.7248 117.054 33.6182 116.831 33.4052 116.667C33.1922 116.502 32.84 116.381 32.3483 116.302L31.316 116.068C30.005 115.801 29.0257 115.39 28.3786 114.835C27.7312 114.279 27.4076 113.515 27.4076 112.545C27.4076 111.449 27.8706 110.576 28.7963 109.926C29.7222 109.276 30.9717 108.951 32.5451 108.951C33.3315 108.951 34.0484 109.026 34.6958 109.174C35.343 109.323 35.8551 109.55 36.232 109.855C36.6089 110.161 36.7975 110.54 36.7975 110.994C36.7975 111.308 36.732 111.582 36.6007 111.817C36.4697 112.052 36.2976 112.247 36.0846 112.404C35.9042 112.294 35.6299 112.177 35.261 112.051C34.8924 111.926 34.491 111.824 34.0566 111.746C33.6224 111.668 33.2169 111.629 32.84 111.629C32.2499 111.629 31.7913 111.703 31.4634 111.852C31.1356 112.001 30.9717 112.231 30.9717 112.545C30.9717 112.748 31.0661 112.924 31.2545 113.073C31.443 113.222 31.7748 113.343 32.2499 113.437L33.2333 113.672C34.6916 113.985 35.7405 114.435 36.3795 115.022C37.0187 115.61 37.3383 116.373 37.3383 117.312ZM39.6243 114.4H43.2376V116.913C43.2376 117.352 43.3853 117.672 43.6802 117.876C43.9751 118.08 44.3929 118.181 44.9337 118.181C45.1796 118.181 45.4459 118.154 45.7326 118.099C46.0193 118.044 46.2612 117.978 46.4577 117.9C46.5887 118.04 46.7076 118.213 46.8142 118.416C46.9208 118.62 46.9739 118.855 46.9739 119.121C46.9739 119.653 46.7444 120.092 46.2856 120.436C45.8267 120.781 45.0567 120.953 43.9751 120.953C42.5986 120.953 41.5292 120.655 40.7672 120.06C40.0052 119.465 39.6243 118.495 39.6243 117.148V114.4ZM41.935 112.263V109.585H46.6545C46.7362 109.711 46.8182 109.891 46.9001 110.125C46.9821 110.36 47.0232 110.619 47.0232 110.9C47.0232 111.37 46.9126 111.715 46.6914 111.934C46.4699 112.153 46.171 112.263 45.7941 112.263H41.935ZM43.2376 114.987H39.6243V106.555C39.7882 106.509 40.0176 106.458 40.3126 106.403C40.6075 106.348 40.9189 106.321 41.2467 106.321C41.9512 106.321 42.4593 106.438 42.7707 106.673C43.0821 106.908 43.2376 107.338 43.2376 107.965V114.987ZM50.7348 116.608L50.5873 114.259L56.6834 113.343C56.6505 112.905 56.454 112.498 56.0935 112.122C55.7328 111.746 55.2002 111.558 54.4958 111.558C53.7582 111.558 53.1436 111.797 52.6521 112.275C52.1604 112.752 51.8984 113.429 51.8655 114.306L51.9885 115.927C52.136 116.788 52.5211 117.402 53.1436 117.77C53.7664 118.138 54.5037 118.322 55.3559 118.322C56.0442 118.322 56.6916 118.228 57.2979 118.04C57.9042 117.853 58.3957 117.657 58.7726 117.453C59.0185 117.594 59.2193 117.79 59.375 118.04C59.5306 118.291 59.6084 118.557 59.6084 118.839C59.6084 119.309 59.4158 119.7 59.0307 120.013C58.6458 120.327 58.1132 120.562 57.4329 120.718C56.7529 120.875 55.9787 120.953 55.1101 120.953C53.8483 120.953 52.7134 120.726 51.7058 120.272C50.6979 119.818 49.9073 119.137 49.3336 118.228C48.7602 117.32 48.4734 116.185 48.4734 114.823C48.4734 113.821 48.6413 112.952 48.9774 112.216C49.3132 111.48 49.7638 110.873 50.3293 110.396C50.8945 109.918 51.5337 109.562 52.2466 109.327C52.9593 109.092 53.7009 108.975 54.4711 108.975C55.6018 108.975 56.5892 109.19 57.4329 109.621C58.2769 110.051 58.9365 110.634 59.4118 111.37C59.8871 112.106 60.1247 112.96 60.1247 113.93C60.1247 114.416 59.9853 114.784 59.7068 115.034C59.4283 115.285 59.0431 115.441 58.5514 115.504L50.7348 116.608ZM73.6441 113.296V115.504H69.9815V113.414C69.9815 112.834 69.8054 112.408 69.4531 112.134C69.1007 111.86 68.6378 111.723 68.0642 111.723C67.6546 111.723 67.2777 111.774 66.9335 111.875C66.5895 111.977 66.2781 112.098 65.9994 112.239V115.504H62.3615V111.84C62.3615 111.449 62.4476 111.124 62.6195 110.865C62.7916 110.607 63.0415 110.376 63.3693 110.172C63.8937 109.828 64.5655 109.542 65.385 109.315C66.2044 109.088 67.1056 108.975 68.0888 108.975C69.8587 108.975 71.227 109.346 72.1938 110.09C73.1606 110.834 73.6441 111.903 73.6441 113.296ZM62.3615 114.424H65.9994V120.577C65.8357 120.624 65.6062 120.667 65.3113 120.706C65.0161 120.745 64.6968 120.765 64.3525 120.765C63.6643 120.765 63.1603 120.647 62.8407 120.413C62.5214 120.178 62.3615 119.755 62.3615 119.144V114.424ZM69.9815 114.424H73.6441V120.577C73.4802 120.624 73.2507 120.667 72.9558 120.706C72.6609 120.745 72.3413 120.765 71.9972 120.765C71.309 120.765 70.8008 120.647 70.4732 120.413C70.1454 120.178 69.9815 119.755 69.9815 119.144V114.424ZM76.52 114.4H80.1332V116.913C80.1332 117.352 80.2809 117.672 80.5759 117.876C80.8708 118.08 81.2886 118.181 81.8294 118.181C82.0752 118.181 82.3415 118.154 82.6282 118.099C82.915 118.044 83.1568 117.978 83.3534 117.9C83.4844 118.04 83.6032 118.213 83.7098 118.416C83.8164 118.62 83.8695 118.855 83.8695 119.121C83.8695 119.653 83.6401 120.092 83.1813 120.436C82.7224 120.781 81.9524 120.953 80.8708 120.953C79.4943 120.953 78.4249 120.655 77.6629 120.06C76.9009 119.465 76.52 118.495 76.52 117.148V114.4ZM78.8306 112.263V109.585H83.5501C83.6319 109.711 83.7138 109.891 83.7958 110.125C83.8777 110.36 83.9188 110.619 83.9188 110.9C83.9188 111.37 83.8082 111.715 83.587 111.934C83.3656 112.153 83.0667 112.263 82.6898 112.263H78.8306ZM80.1332 114.987H76.52V106.555C76.6839 106.509 76.9133 106.458 77.2082 106.403C77.5032 106.348 77.8146 106.321 78.1424 106.321C78.8469 106.321 79.355 106.438 79.6664 106.673C79.9778 106.908 80.1332 107.338 80.1332 107.965V114.987ZM90.9734 118.369C91.3503 118.369 91.723 118.334 92.0917 118.264C92.4606 118.193 92.7269 118.111 92.8905 118.017V115.762L90.826 115.95C90.2687 115.982 89.8263 116.091 89.4985 116.279C89.1707 116.467 89.0068 116.749 89.0068 117.125C89.0068 117.5 89.1625 117.802 89.4739 118.029C89.7852 118.256 90.2852 118.369 90.9734 118.369ZM90.826 108.975C92.5301 108.975 93.8902 109.315 94.9063 109.996C95.9224 110.677 96.4303 111.73 96.4303 113.155V118.487C96.4303 118.878 96.3237 119.195 96.1107 119.438C95.8977 119.681 95.6272 119.888 95.2996 120.06C94.8079 120.342 94.1976 120.565 93.4682 120.73C92.7391 120.894 91.9073 120.976 90.9734 120.976C89.302 120.976 87.9705 120.663 86.9791 120.037C85.9876 119.41 85.4919 118.479 85.4919 117.242C85.4919 116.177 85.8359 115.359 86.5242 114.788C87.2125 114.216 88.2368 113.868 89.5969 113.742L92.8661 113.414V113.132C92.8661 112.599 92.6489 112.216 92.2147 111.981C91.7805 111.746 91.1618 111.629 90.3589 111.629C89.7361 111.629 89.1256 111.699 88.5275 111.84C87.9294 111.981 87.3928 112.145 86.9175 112.333C86.721 112.208 86.5529 112.016 86.4136 111.758C86.2744 111.5 86.2046 111.229 86.2046 110.948C86.2046 110.29 86.5815 109.812 87.3353 109.515C87.8106 109.327 88.3636 109.19 88.9946 109.104C89.6255 109.018 90.2359 108.975 90.826 108.975ZM90.064 105.874L92.5219 103.314C93.2594 103.314 93.8165 103.467 94.1934 103.772C94.5703 104.078 94.7588 104.418 94.7588 104.794C94.7588 105.123 94.6851 105.397 94.5376 105.616C94.3901 105.835 94.1443 106.086 93.8 106.368L91.4649 108.27C90.8422 108.27 90.3671 108.125 90.0393 107.836C89.7115 107.546 89.5476 107.237 89.5476 106.908C89.5476 106.72 89.5887 106.548 89.6706 106.391C89.7526 106.235 89.8836 106.062 90.064 105.874ZM108.18 109.092C108.688 109.092 109.11 109.198 109.446 109.409C109.782 109.621 109.95 109.977 109.95 110.478C109.95 110.76 109.868 111.198 109.704 111.793C109.54 112.388 109.323 113.077 109.053 113.86C108.782 114.643 108.483 115.441 108.155 116.256C107.828 117.07 107.5 117.833 107.172 118.546C106.844 119.258 106.549 119.849 106.287 120.319C106.107 120.444 105.82 120.557 105.427 120.659C105.034 120.761 104.599 120.812 104.124 120.812C103.567 120.812 103.088 120.741 102.686 120.601C102.285 120.46 102.002 120.24 101.838 119.943C101.658 119.614 101.437 119.152 101.174 118.557C100.912 117.962 100.634 117.285 100.339 116.526C100.044 115.766 99.7488 114.979 99.4537 114.165C99.1587 113.351 98.8884 112.568 98.6426 111.817C98.3967 111.065 98.2002 110.407 98.0527 109.844C98.2657 109.64 98.5402 109.464 98.8762 109.315C99.212 109.166 99.5767 109.092 99.97 109.092C100.478 109.092 100.896 109.194 101.224 109.397C101.551 109.601 101.789 109.985 101.936 110.548L103.042 114.283C103.174 114.721 103.309 115.16 103.448 115.598C103.588 116.036 103.714 116.443 103.829 116.819C103.944 117.195 104.042 117.516 104.124 117.782H104.222C104.616 116.514 105.013 115.155 105.415 113.707C105.816 112.259 106.172 110.846 106.484 109.468C106.976 109.217 107.541 109.092 108.18 109.092ZM113.588 116.608L113.44 114.259L119.536 113.343C119.503 112.905 119.307 112.498 118.946 112.122C118.586 111.746 118.053 111.558 117.349 111.558C116.611 111.558 115.997 111.797 115.505 112.275C115.013 112.752 114.751 113.429 114.718 114.306L114.841 115.927C114.989 116.788 115.374 117.402 115.997 117.77C116.619 118.138 117.357 118.322 118.209 118.322C118.897 118.322 119.545 118.228 120.151 118.04C120.757 117.853 121.249 117.657 121.626 117.453C121.871 117.594 122.072 117.79 122.228 118.04C122.384 118.291 122.461 118.557 122.461 118.839C122.461 119.309 122.269 119.7 121.884 120.013C121.499 120.327 120.966 120.562 120.286 120.718C119.606 120.875 118.832 120.953 117.963 120.953C116.701 120.953 115.566 120.726 114.559 120.272C113.551 119.818 112.76 119.137 112.187 118.228C111.613 117.32 111.326 116.185 111.326 114.823C111.326 113.821 111.494 112.952 111.83 112.216C112.166 111.48 112.617 110.873 113.182 110.396C113.747 109.918 114.387 109.562 115.1 109.327C115.812 109.092 116.554 108.975 117.324 108.975C118.455 108.975 119.442 109.19 120.286 109.621C121.13 110.051 121.789 110.634 122.265 111.37C122.74 112.106 122.978 112.96 122.978 113.93C122.978 114.416 122.838 114.784 122.56 115.034C122.281 115.285 121.896 115.441 121.404 115.504L113.588 116.608ZM125.337 114.4L129 114.47V120.577C128.836 120.624 128.607 120.667 128.312 120.706C128.017 120.745 127.697 120.765 127.353 120.765C126.665 120.765 126.157 120.647 125.829 120.413C125.501 120.178 125.337 119.755 125.337 119.144V114.4ZM129 116.279L125.337 116.208V105.311C125.501 105.264 125.731 105.217 126.026 105.17C126.321 105.123 126.64 105.099 126.984 105.099C127.689 105.099 128.201 105.217 128.52 105.452C128.84 105.686 129 106.117 129 106.743V116.279Z" fill="#1F731D"/>
<path d="M20.2813 12.0718L64.6469 1.40381L108.425 12.914V57.5509L64.6469 69.3419L20.2813 57.5509V12.0718Z" fill="#FEFEFE"/>
<path d="M25.4559 13.7852L64.3529 23.8626V66.8153L106.368 56.1473V13.1948L64.3529 23.8626V3.93033L25.4559 13.7852ZM41.7292 55.8156C45.3489 55.1974 48.1933 48.9211 48.1933 41.2682C48.1933 33.6155 45.3489 27.3392 41.7292 26.721C40.026 26.6425 39.1585 26.6601 37.616 26.721C33.9966 27.3392 31.152 33.6155 31.152 41.2682C31.152 48.9211 33.9966 55.1974 37.616 55.8156C38.0154 55.8502 40.4595 55.8941 41.7292 55.8156ZM37.3222 28.9159C40.0806 28.9159 42.3169 34.1948 42.3169 40.7067C42.3169 47.2186 40.0806 52.4975 37.3222 52.4975C34.5638 52.4975 32.3275 47.2186 32.3275 40.7067C32.3275 34.1948 34.5638 28.9159 37.3222 28.9159ZM79.0435 53.0592V33.8909L73.4612 35.3728V54.7435L79.0435 53.0592ZM94.9093 29.8815V49.0499L100.492 47.5679L100.492 28.1972L94.9093 29.8815ZM18.812 12.0718L64.3529 0L110.188 12.3525V58.9546L64.3529 70.7456L18.812 58.6738V12.0718Z" fill="#1F731D"/>
</svg>
